<?xml version="1.0" encoding="UTF-8" standalone="no"?>
<!-- Created with Inkscape (http://www.inkscape.org/) -->

<svg
   width="100"
   height="100"
   viewBox="0 0 26.458335 26.458332"
   version="1.1"
   id="svg1"
   xml:space="preserve"
   xmlns="http://www.w3.org/2000/svg"
   xmlns:svg="http://www.w3.org/2000/svg"><defs
     id="defs1" /><path
     fill="#ff0066"
     d="m 13.601285,9.720031 c 2.913136,-0.499903 4.532919,-0.213611 6.920348,0.6658 2.387423,0.879415 2.793802,4.008198 2.929049,7.169756 0.135242,3.16156 2.751557,4.718042 0.664318,6.300609 -2.107827,1.586512 -6.146426,1.557326 -9.171166,1.69685 -3.004157,0.135603 -4.9703587,0.454414 -7.0340747,0.48649 C 5.8495653,26.090022 3.7089135,25.831433 2.4160478,24.761751 1.1231824,23.692072 3.1378248,20.400134 2.954405,18.660186 2.7709833,16.920232 0.9537782,14.860699 0.8031126,12.778579 0.6760615,11.022802 0.5343781,8.739237 1.8842673,7.60933 3.3602266,6.373898 5.7177473,6.838037 7.6561213,7.440609 10.322367,8.26945 10.688141,10.219939 13.601282,9.720018 Z"
     id="path1"
     style="display:inline;fill:#000000;stroke-width:0.198217" /></svg>
