<?xml version="1.0" encoding="UTF-8" standalone="no"?>
<!-- Created with Inkscape (http://www.inkscape.org/) -->

<svg
   width="100"
   height="100"
   viewBox="0 0 26.458335 26.458332"
   version="1.1"
   id="svg1"
   xml:space="preserve"
   xmlns="http://www.w3.org/2000/svg"
   xmlns:svg="http://www.w3.org/2000/svg"><defs
     id="defs1" /><path
     d="M 4.3509831,7.1763422 C 3.885068,7.1926942 3.4364721,7.2991489 3.0160297,7.5331897 1.4779101,8.3893908 1.4726012,10.716365 0.98300185,12.407277 0.49643463,14.087719 0.2494382,15.837902 0.10272695,17.581332 -0.04398499,19.32476 0.03988739,21.29314 1.1087847,22.58665 c 1.0688972,1.293517 3.1228667,1.949673 5.1558662,2.287112 2.0329998,0.356186 4.0240761,0.412417 7.0002211,0.843588 2.997098,0.431189 6.958298,1.218552 9.326638,0.05626 2.347378,-1.162281 3.080916,-4.292979 3.542013,-7.423657 0.46109,-3.130678 0.649761,-6.280086 -1.529948,-7.592346 C 22.423858,9.445353 17.875784,9.970279 14.920603,9.9140216 V 9.91397 C 11.965412,9.8577296 10.624049,9.2016062 8.7168012,8.451744 7.3020831,7.8893498 5.7487286,7.1272978 4.3509831,7.1763422 Z"
     style="display:inline;stroke-width:0.198217"
     id="path8" /></svg>
