<?xml version="1.0" encoding="UTF-8" standalone="no"?>
<!-- Created with Inkscape (http://www.inkscape.org/) -->

<svg
   width="22.076834mm"
   height="31.483608mm"
   viewBox="0 0 22.076834 31.483608"
   version="1.1"
   id="svg1"
   xmlns="http://www.w3.org/2000/svg"
   xmlns:svg="http://www.w3.org/2000/svg">
  <defs
     id="defs1" />
  <path
     d="m 15.696937,0.78878324 c 0.25744,0.31934996 0.38868,0.75035996 0.65008,1.61130996 l 5.72982,18.8213998 a 23.833402,23.833402 0 0 0 -6.85006,-2.31907 l -3.7301,-12.6063398 a 0.48498125,0.48498125 0 0 0 -0.931331,0.001 L 6.8799647,18.896013 A 23.840017,23.840017 0 0 0 4.7360287e-6,21.218523 L 5.7568087,2.3960632 c 0.263525,-0.85989 0.394758,-1.2901 0.651933,-1.60945996 a 2.1227521,2.1227521 0 0 1 0.858044,-0.63447 C 7.6459337,3.2406498e-6 8.0965187,3.2406498e-6 8.9958377,3.2406498e-6 h 4.1124193 c 0.90011,0 1.3507,0 1.73117,0.1531899993502 a 2.1134917,2.1134917 0 0 1 0.85778,0.63553 z m 0.68527,21.32805976 c -0.94456,0.80804 -2.82998,1.3589 -5.00141,1.3589 -2.6643593,0 -4.8987653,-0.82999 -5.4911673,-1.94627 -0.211667,0.63976 -0.259292,1.3716 -0.259292,1.83991 0,0 -0.139436,2.29526 1.457325,3.89202 a 1.5004521,1.5004521 0 0 1 1.500717,-1.50045 c 1.4208123,0 1.4200183,1.23904 1.4189603,2.24578 v 0.0889 c 0,1.52744 0.933185,2.83607 2.260337,3.38799 a 3.0744583,3.0744583 0 0 1 -0.31009,-1.34884 c 0,-1.45733 0.8546,-1.99893 1.84891,-2.62943 0.79084,-0.50112 1.66925,-1.05834 2.27382,-2.17541 a 4.1044812,4.1044812 0 0 0 0.4961,-1.96056 4.1142708,4.1142708 0 0 0 -0.19421,-1.2528 z m 0,0"
     id="path1"
     style="stroke-width:0.264583" />
</svg>
