<?xml version="1.0" encoding="UTF-8" standalone="no"?>
<!-- Created with Inkscape (http://www.inkscape.org/) -->

<svg
   width="33.866665mm"
   height="29.86194mm"
   viewBox="0 0 33.866665 29.86194"
   version="1.1"
   id="svg1"
   xmlns="http://www.w3.org/2000/svg"
   xmlns:svg="http://www.w3.org/2000/svg">
  <defs
     id="defs1" />
  <path
     d="M 14.897364,-1.1676521e-5 C 8.0623838,-1.1676521e-5 2.3002878,4.5918383 0.52810878,10.859018 A 14.74179,14.74179 0 0 0 7.7880532e-7,13.922098 v 2.01825 A 14.838627,14.838627 0 0 0 1.9634738,22.396708 c 2.581804,4.46299 7.40727,7.46522 12.9338902,7.46522 h 18.9693 v -7.46522 h -18.9693 a 7.43585,7.43585 0 0 1 -5.1231302,-2.03624 c -1.44277,-1.36075 -2.342881,-3.2893 -2.342881,-5.42925 0,-0.7059 0.0979,-1.38853 0.281252,-2.03623 0.206375,-0.73025 0.521229,-1.41499 0.926839,-2.03597 1.33164,-2.0431097 3.6369602,-3.3938097 6.2579202,-3.3938097 2.62123,0 4.92575,1.3507 6.2574,3.3938097 h 8.1108 C 27.493644,4.5918383 21.732874,-1.1676521e-5 14.897364,-1.1676521e-5 Z M 22.082124,12.894988 a 7.4665417,7.4665417 0 0 1 0.28099,2.03623 c 0,2.13995 -0.89985,4.0685 -2.34289,5.42925 h 13.84644 v -7.46548 z"
     id="path1"
     style="stroke-width:0.264583" />
</svg>
