<?xml version="1.0" encoding="UTF-8" standalone="no"?>
<!-- Created with Inkscape (http://www.inkscape.org/) -->

<svg
   width="29.231161mm"
   height="33.195423mm"
   viewBox="0 0 29.231161 33.195423"
   version="1.1"
   id="svg1"
   xmlns="http://www.w3.org/2000/svg"
   xmlns:svg="http://www.w3.org/2000/svg">
  <defs
     id="defs1" />
  <path
    
     d="M -3.7083525e-6,-9.3472319e-6 2.6603813,29.866951 14.597853,33.195411 26.56866,29.854781 29.23116,-9.3472319e-6 Z M 23.70428,6.8426407 l -0.88556,9.9496603 0.003,0.0537 -0.004,0.12356 v -10e-4 l -0.62918,6.95695 -0.0693,0.61807 -7.50358,2.07539 v 2.7e-4 l -0.006,0.005 -7.4906007,-2.08697 -0.507206,-5.75178 h 3.6732117 l 0.260614,2.92471 4.070881,1.10331 -10e-4,0.002 v -5.3e-4 l 4.08596,-1.11892 0.4318,-4.76277 h -8.541503 l -0.07329,-0.80511 -0.166952,-1.88621 -0.08758,-1.01283 H 19.458 L 19.79244,9.5249807 H 5.7890793 l -0.07329,-0.8046 -0.166687,-1.88674 -0.08784,-1.01283 H 23.79186 Z"
     id="path1"
     style="stroke-width:0.264583" />
</svg>
