<?xml version="1.0" encoding="UTF-8" standalone="no"?>
<!-- Created with Inkscape (http://www.inkscape.org/) -->

<svg
   width="33.866665mm"
   height="30.220831mm"
   viewBox="0 0 33.866665 30.220831"
   version="1.1"
   id="svg1"
   xmlns="http://www.w3.org/2000/svg"
   xmlns:svg="http://www.w3.org/2000/svg">
  <defs
     id="defs1" />
  <path
     d="m 16.048038,11.110621 c 0.278078,-0.40587 0.58129,-0.45693 0.827353,-0.45693 0.246062,0 0.654843,0.0511 0.933185,0.45693 2.182283,2.97313 5.785118,8.89768 8.443378,13.26939 1.73435,2.84877 3.06547,5.03846 3.33958,5.3168 1.02499,1.04563 2.43125,0.39396 3.24855,-0.79243 0.80407,-1.16734 1.02658,-1.98755 1.02658,-2.862 0,-0.5961 -11.65542,-22.0966705 -12.82858,-23.8865805 C 19.909897,0.43495047 19.541068,-1.9537606e-5 17.610668,-1.9537606e-5 h -1.447007 c -1.926166,0 -2.204243,0.434970007606 -3.333485,2.155820037606 C 11.657013,3.9457105 6.5507488e-7,25.446281 6.5507488e-7,26.041061 c 0,0.87577 0.22410200492512,1.69598 1.02975804492512,2.86332 0.817033,1.18639 2.223294,1.83806 3.248554,0.79111 0.272521,-0.27861 1.60364,-2.46671 3.337719,-5.31681 2.6582693,-4.37038 6.2494593,-10.29493 8.4333293,-13.26964 z"
     id="path1"
     style="stroke-width:0.264583" />
</svg>
