<?xml version="1.0" encoding="UTF-8" standalone="no"?>
<!-- Created with Inkscape (http://www.inkscape.org/) -->

<svg
   width="33.170811mm"
   height="19.252993mm"
   viewBox="0 0 33.170811 19.252993"
   version="1.1"
   id="svg1"
   xmlns="http://www.w3.org/2000/svg"
   xmlns:svg="http://www.w3.org/2000/svg">
  <defs
     id="defs1" />
  <path
     d="m 33.170809,18.742815 c -1.2065,0.30692 -1.95262,0.0132 -2.622017,-0.99218 -1.502833,-2.25161 -3.161771,-4.40003 -4.7625,-6.58813 -0.206375,-0.2831 -0.420688,-0.56092 -0.687917,-0.91281 -1.894416,2.55587 -3.786187,4.99004 -5.561541,7.5221 -0.635,0.90488 -1.30175,1.29911 -2.487084,0.97896 l 7.122584,-9.5594 -6.630459,-8.63335005 c 1.140354,-0.22225 1.928813,-0.10848 2.627313,0.91281005 1.542521,2.25425 3.243791,4.40002 4.939771,6.67015 1.706562,-2.26219 3.386666,-4.41061 4.974166,-6.64369 C 30.720771,0.59240495 31.406039,0.24844495 32.551689,0.58181495 31.683859,1.732755 30.834542,2.865175 29.979938,3.989655 c -1.153584,1.51606 -2.286,3.05064 -3.481917,4.53495 -0.425979,0.52917 -0.357187,0.87313 0.02381,1.37319 2.211916,2.90777 4.397375,5.84465 6.648978,8.84502 z M 0.00793822,9.032605 c 0.1905,-0.95514 0.3175,-1.92881 0.582084,-2.86543 1.58750008,-5.67002005 8.09625008,-8.02746 12.56770678,-4.51379 2.619375,2.0611 3.27025,4.96622 3.140605,8.24177 H 1.5345843 c -0.22225,5.87639 4.008438,9.42445 9.4006447,7.6147 1.891771,-0.635 3.005667,-2.11666 3.563938,-3.96875 0.283104,-0.92868 0.751417,-1.0742 1.624542,-0.80962 -0.447146,2.31775 -1.4605,4.2545 -3.577167,5.46629 -3.1749997,1.81504 -7.7073117,1.22767 -10.0912077,-1.29381 -1.407583,-1.48167 -2.00554208,-3.32581 -2.27012508,-5.31813 -0.03969,-0.3175 -0.121708,-0.6297 -0.1852079962844,-0.94456 Q 0.00790122,9.836945 0.00790122,9.032605 Z M 1.5610423,8.638385 H 14.903979 c -0.08731,-4.24921 -2.733145,-7.26811 -6.3499987,-7.29457 -3.96875,-0.0318 -6.820958,2.91571 -6.992938,7.29457 z"
     id="path1"
     style="stroke-width:0.264583" />
</svg>
