<?xml version="1.0" encoding="UTF-8" standalone="no"?>
<!-- Created with Inkscape (http://www.inkscape.org/) -->

<svg
   width="22.754166mm"
   height="34.131256mm"
   viewBox="0 0 22.754166 34.131256"
   version="1.1"
   id="svg1"
   xmlns="http://www.w3.org/2000/svg"
   xmlns:svg="http://www.w3.org/2000/svg">
  <defs
     id="defs1" />
  <path
     d="m 5.6885489,34.131241 c 3.148541,0 5.6885451,-2.54 5.6885451,-5.68855 v -5.68854 H 5.6885489 c -3.148542,0 -5.6885419010937,2.54 -5.6885419010937,5.68854 0,3.14855 2.5399999010937,5.68855 5.6885419010937,5.68855 z m 0,0 M 6.9989063e-6,17.065611 c 0,-3.14854 2.5399999010937,-5.68854 5.6885419010937,-5.68854 h 5.6885451 v 11.37708 H 5.6885489 c -3.148542,0 -5.6885419010937,-2.54 -5.6885419010937,-5.68854 z m 0,0 m 0,-11.3770806 C 6.9989063e-6,2.5399904 2.5400069,-9.5625282e-6 5.6885489,-9.5625282e-6 H 11.377094 V 11.377071 H 5.6885489 C 2.5400069,11.377071 6.9989063e-6,8.8370704 6.9989063e-6,5.6885304 Z m 0,0 M 11.377094,-9.5625282e-6 h 5.68854 c 3.14854,0 5.68854,2.5399999625282 5.68854,5.6885399625282 0,3.14854 -2.54,5.6885406 -5.68854,5.6885406 h -5.68854 z m 0,0 M 22.754174,17.065611 c 0,3.14854 -2.54,5.68854 -5.68854,5.68854 -3.14854,0 -5.68854,-2.54 -5.68854,-5.68854 0,-3.14854 2.54,-5.68854 5.68854,-5.68854 3.14854,0 5.68854,2.54 5.68854,5.68854 z m 0,0"
     id="path1"
     style="stroke-width:0.264583" />
</svg>
