<?xml version="1.0" encoding="UTF-8" standalone="no"?>
<!-- Created with Inkscape (http://www.inkscape.org/) -->

<svg
   width="33.399826mm"
   height="33.399433mm"
   viewBox="0 0 33.399826 33.399433"
   version="1.1"
   id="svg1"
   xmlns="http://www.w3.org/2000/svg"
   xmlns:svg="http://www.w3.org/2000/svg">
  <defs
     id="defs1" />
  <path

     d="M 32.769754,15.212091 18.18698,0.62984151 c -0.839258,-0.83979 -2.201333,-0.83979 -3.041914,0 l -3.027892,3.02841999 3.841221,3.84122 c 0.892969,-0.30136 1.916377,-0.0992 2.627841,0.61225 0.715169,0.71596 0.915723,1.7481 0.606955,2.6439795 l 3.702053,3.70231 c 0.89561,-0.30877 1.92934,-0.10927 2.64424,0.60722 1.00013,0.99933 1.00013,2.61938 0,3.61924 a 2.5593146,2.5593146 0 0 1 -3.62029,0 2.5603729,2.5603729 0 0 1 -0.55695,-2.78368 l -3.452283,-3.45229 -5.29e-4,9.08606 a 2.568575,2.568575 0 0 1 0.677069,0.48366 c 0.999596,0.99933 0.999596,2.61884 0,3.62029 -0.99986,0.99933 -2.620433,0.99933 -3.619235,0 -0.999596,-1.00118 -0.999596,-2.6207 0,-3.62029 a 2.5532292,2.5532292 0 0 1 0.837935,-0.55827 v -9.1702 a 2.5349729,2.5349729 0 0 1 -0.837935,-0.55853 C 14.210028,10.974521 14.02773,9.8632715 14.416139,8.9329915 l -3.786982,-3.78698 -9.9991324,9.9986095 a 2.1518562,2.1518562 0 0 0 0,3.0427 l 14.5830394,14.58225 c 0.839787,0.83979 2.201333,0.83979 3.042443,0 l 14.514517,-14.51451 a 2.1523854,2.1523854 0 0 0 -2.7e-4,-3.04297 z"
     id="path1"
     style="stroke-width:0.264583" />
</svg>
