<?xml version="1.0" encoding="UTF-8" standalone="no"?>
<!-- Created with Inkscape (http://www.inkscape.org/) -->

<svg
   width="21.795294mm"
   height="15.48557mm"
   viewBox="0 0 21.795294 15.48557"
   version="1.1"
   id="svg1"
   xmlns="http://www.w3.org/2000/svg"
   xmlns:svg="http://www.w3.org/2000/svg">
  <defs
     id="defs1" />
  <path

     d="m 21.705632,10.196429 c -0.24263,-1.5110403 -1.22793,-2.7802403 -4.14655,-3.9637303 -1.01389,-0.46593 -2.14419,-0.79957 -2.481,-1.56792 -0.11959,-0.44714 -0.13547,-0.69903 -0.0598,-0.96969 0.21722,-0.87842 1.26577,-1.15227 2.09682,-0.90038 0.53525,0.17939 1.04193,0.59187 1.34752,1.24989 1.42928,-0.92551 1.42637,-0.91943 2.42438,-1.55549 -0.36539,-0.56647 -0.56039,-0.82788 -0.79957,-1.07024 -0.85963,-0.96017002 -2.03094,-1.45467002 -3.90419,-1.41684002 l -0.97578,0.12621 c -0.93504,0.23627 -1.82616,0.72707 -2.34871,1.38509002 -1.56792,1.77906 -1.12078,4.89268 0.78714,6.17405 1.8796,1.41076 4.64079,1.7317 4.99348,3.0509103 0.34316,1.61502 -1.18692,2.13784 -2.70775,1.9521 -1.12077,-0.2331 -1.74413,-0.80275 -2.41803,-1.83859 -1.24036,0.71781 -1.24036,0.71781 -2.51565,1.45124 0.30241,0.66119 0.62018,0.96044 1.12712,1.53326 2.39924,2.43364 8.40317,2.31405 9.48002,-1.36948 0.0437,-0.12647 0.33364,-0.96997 0.10054,-2.27039 z M 9.3006416,0.19702868 h -3.09801 l -0.0127,8.00947002 c 0,1.70338 0.0881,3.2649503 -0.18891,3.7435903 -0.45323,0.94138 -1.62772,0.8247 -2.16297,0.64214 -0.54478,-0.26776 -0.8218,-0.64849 -1.14274,-1.18666 -0.0881,-0.15451 -0.15425,-0.27411 -0.17647,-0.28337 L 1.5700708e-6,12.664719 C 0.41884157,13.524359 1.0358416,14.270479 1.8261516,14.755199 c 1.18058,0.70855 2.76728,0.92577 4.42675,0.54477 1.08003,-0.31458 2.01189,-0.96625 2.49978,-1.95818 0.70538,-1.30042 0.55404,-2.87443 0.54769,-4.6153903 0.0159,-2.8403 2.7e-4,-5.68007 2.7e-4,-8.52937002 z"
     id="path2"
     style="stroke-width:0.264583" />
</svg>
