<?xml version="1.0" encoding="UTF-8" standalone="no"?>
<!-- Created with Inkscape (http://www.inkscape.org/) -->

<svg
   width="33.869312mm"
   height="29.801348mm"
   viewBox="0 0 33.869312 29.801348"
   version="1.1"
   id="svg1"
   xmlns="http://www.w3.org/2000/svg"
   xmlns:svg="http://www.w3.org/2000/svg">
  <defs
     id="defs1" />
  <path
     d="m 15.595073,29.607396 v -6.96648 l 0.193939,-0.19421 h 2.32754 l 0.19394,0.19394 v 6.96675 l -0.19394,0.19394 h -2.327275 z m 0,-22.4467193 V 0.19419664 L 15.789012,-1.3357791e-5 h 2.32754 L 18.310492,0.19392664 V 7.1606767 l -0.19394,0.19394 h -2.327275 z m 18.080302,9.0976893 h -9.28899 l -0.19394,-0.19394 v -2.32727 l 0.19394,-0.19394 h 9.28899 l 0.19394,0.19394 v 2.32754 z m -24.1924419,0 H 0.19394108 L 2.0739586e-6,16.064426 v -2.32727 L 0.19394108,13.543216 H 9.4829331 l 0.193939,0.19394 v 2.32754 z m 11.8054419,3.48086 h -2.322246 l -0.19394,-0.19394 v -5.43613 c 0,-0.96731 -0.379941,-1.71688 -1.546225,-1.74307 -0.600339,-0.0159 -1.286933,0 -2.020887,0.0291 l -0.110067,0.11245 v 7.035 l -0.193939,0.19394 h -2.322777 l -0.19394,-0.19394 v -9.28634 l 0.19394,-0.19421 h 5.226314 c 2.031206,0 3.677447,1.64624 3.677447,3.67771 v 5.80549 z M 7.2371501,6.8302067 v -0.31961 l 1.596231,-1.59624 h 0.319616 l 2.4402529,2.44026 v 1.69068 l -0.225425,0.22543 H 9.6771371 Z m 1.915847,18.0541093 h -0.319616 l -1.596231,-1.59623 v -0.31988 l 2.440252,-2.43999 h 1.6906869 l 0.225161,0.22516 v 1.69069 z"
     id="path1"
     style="stroke-width:0.264583" />
</svg>
