<?xml version="1.0" encoding="UTF-8" standalone="no"?>
<!-- Created with Inkscape (http://www.inkscape.org/) -->

<svg
   width="29.777269mm"
   height="33.857529mm"
   viewBox="0 0 29.777269 33.857529"
   version="1.1"
   id="svg1"
   xmlns="http://www.w3.org/2000/svg"
   xmlns:svg="http://www.w3.org/2000/svg">
  <defs
     id="defs1" />
  <path
    
     d="m 14.886517,0.00156806 c -0.297127,0 -0.594254,0.0771 -0.86016,0.23119 L 0.86069029,7.831598 C 0.32861329,8.139568 2.9097374e-7,8.708428 2.9097374e-7,9.321728 v 15.21089 c 0,0.61437 0.32861299902626,1.18322 0.86068999902626,1.4912 l 13.16566671,7.60412 c 0.5334,0.30612 1.189831,0.30612 1.721908,0 v -5.1e-4 l 13.168313,-7.60413 c 0.532341,-0.30824 0.860689,-0.87683 0.860689,-1.49119 V 9.321218 c 0,-0.61437 -0.328348,-1.18322 -0.860689,-1.4912 L 15.748265,0.23118806 C 15.482359,0.07709806 15.185232,-1.9422385e-6 14.888105,-1.9422385e-6 Z m 0,0.26247 c 0.07797,0 0.155549,0.008 0.232728,0.021 L 29.446432,24.960088 c -0.106838,0.34713 -0.339196,0.64875 -0.662781,0.83608 l -13.168312,7.60412 c -0.184733,0.10618 -0.387086,0.16685 -0.592667,0.18609 L 1.0791303,8.006458 14.157484,0.45789806 c 0.225425,-0.13063 0.477309,-0.19582 0.728927,-0.19582 z m 0.604309,0.1343 c 0.04188,0.0192 0.08369,0.0381 0.124063,0.0615 L 28.783201,8.058678 c 0.118957,0.0688 0.224896,0.15354 0.317765,0.24966 l -4.360333,8.02217 z M 0.85407529,8.150628 l 4.65931301,8.54869 -5.00856301,8.636 c -0.154887,-0.23479 -0.244025,-0.51171 -0.244025,-0.80222 V 9.322208 c 0,-0.46435 0.223203,-0.89721 0.592667,-1.17079 z M 29.270326,8.535068 c 0.148775,0.23162 0.234262,0.50297 0.234262,0.7874 v 15.2109 c 0,0.005 -9.77e-4,0.01 -10e-4,0.0149 l -4.617003,-7.95074 z m -23.6167087,8.43492 9.0566877,16.61583 c -0.195342,-0.0223 -0.387615,-0.0829 -0.563827,-0.18404 h -5.13e-4 L 0.98294429,25.797648 c -0.115041,-0.0666 -0.218334,-0.14819 -0.309033,-0.24043 z"
     id="path1"
     style="stroke-width:0.264583" />
</svg>
