<?xml version="1.0" encoding="UTF-8" standalone="no"?>
<!-- Created with Inkscape (http://www.inkscape.org/) -->

<svg
   width="32.023586mm"
   height="32.377254mm"
   viewBox="0 0 32.023586 32.377254"
   version="1.1"
   id="svg1"
   xmlns="http://www.w3.org/2000/svg"
   xmlns:svg="http://www.w3.org/2000/svg">
  <defs
     id="defs1" />
  <g
     id="layer1"
     transform="translate(-115.22164,-143.6198)">
    <path
       d="m 127.3519,159.27917 h 7.71498 c 2.14762,0 3.83937,-1.81716 3.83937,-3.97378 v -7.35489 c 0,-2.09338 -1.75472,-3.66606 -3.85101,-4.01531 -1.32662,-0.22093 -2.69743,-0.32147 -4.01823,-0.31512 -1.32027,0.006 -2.54317,0.11853 -3.65257,0.31512 -3.26893,0.57705 -3.82402,1.7862 -3.82402,4.01531 v 2.862 h 7.67291 v 1.05833 h -10.6426 c -2.24472,0 -4.21058,1.35149 -4.8252,3.91875 -0.70935,2.94216 -0.74084,4.74107 0,7.81314 0.54901,2.28653 1.86002,3.87853 4.10501,3.87853 h 2.63154 v -3.45228 c 0,-2.54979 2.22991,-4.7498 4.84982,-4.7498 z m -0.48631,-10.34786 c -0.80063,0 -1.44939,-0.6559 -1.44939,-1.46711 0,-0.81465 0.6485,-1.47664 1.44939,-1.47664 0.79772,0 1.44965,0.66199 1.44965,1.47664 -2.6e-4,0.81121 -0.65219,1.46711 -1.44965,1.46711 z m 19.78792,6.85827 c -0.55509,-2.2352 -1.61475,-3.91875 -3.86265,-3.91875 h -2.82628 v 3.43456 c 0,2.65906 -2.32674,4.76753 -4.8977,4.76753 h -7.71498 c -2.1135,0 -3.79148,1.93833 -3.79148,4.055 v 7.35542 c 0,2.09285 1.78461,3.32422 3.8264,3.92483 2.44528,0.71887 4.76091,0.84878 7.68641,0 1.94442,-0.5633 3.83302,-1.69625 3.83302,-3.92483 v -2.94376 h -7.67292 v -1.05833 h 11.55753 c 2.24473,0 3.0816,-1.52823 3.86265,-3.87879 0.80619,-2.41962 0.77153,-4.70932 0,-7.81288 z M 135.55292,170.502 c 0.80089,0 1.44965,0.6559 1.44965,1.46764 0,0.81386 -0.64849,1.47611 -1.44965,1.47611 -0.79772,0 -1.44939,-0.66199 -1.44939,-1.47611 0,-0.81174 0.65167,-1.46764 1.44939,-1.46764 z"
       id="path1"
       style="stroke-width:0.264583" />
  </g>
</svg>
