<?xml version="1.0" encoding="UTF-8" standalone="no"?>
<!-- Created with Inkscape (http://www.inkscape.org/) -->

<svg
   width="33.812424mm"
   height="33.173363mm"
   viewBox="0 0 33.812424 33.173363"
   version="1.1"
   id="svg1"
   xmlns="http://www.w3.org/2000/svg"
   xmlns:svg="http://www.w3.org/2000/svg">
  <defs
     id="defs1" />
  <path

     d="m 31.138546,25.673751 c -1.84494,-0.0505 -3.25358,0.12197 -4.45876,0.62944 -0.34211,0.14473 -0.88768,0.14791 -0.94351,0.57679 0.18812,0.19738 0.21696,0.49187 0.36698,0.73475 0.28734,0.46408 0.77311,1.08823 1.20624,1.41605 0.47334,0.35666 0.96123,0.73898 1.4687,1.04802 0.90329,0.55086 1.91108,0.86518 2.77918,1.41605 0.51276,0.32543 1.02103,0.73475 1.52136,1.10172 0.24712,0.18098 0.41354,0.46302 0.73369,0.57679 v -0.0516 c -0.16854,-0.21484 -0.21194,-0.51065 -0.36698,-0.73475 l -0.6821,-0.68209 c -0.66675,-0.88477 -1.51315,-1.66185 -2.4122,-2.30691 -0.71729,-0.51567 -2.32331,-1.21126 -2.62202,-2.04522 l -0.0526,-0.0526 c 0.50853,-0.0579 1.10384,-0.24183 1.574,-0.36804 0.78846,-0.21087 1.49358,-0.1561 2.3069,-0.36698 l 1.10173,-0.31406 v -0.20981 c -0.41143,-0.42175 -0.70485,-0.98081 -1.15332,-1.36314 -1.17502,-1.00039 -2.45666,-1.99892 -3.7764,-2.83183 -0.73184,-0.46197 -1.63618,-0.7628 -2.41221,-1.15438 -0.2614,-0.13123 -0.7194,-0.20055 -0.89191,-0.41963 -0.40719,-0.51885 -0.62944,-1.17713 -0.9435,-1.78276 -0.65828,-1.26815 -1.304397,-2.65192 -1.888332,-3.98621 -0.397933,-0.90938 -0.657225,-1.80658 -1.153319,-2.62203 -2.38125,-3.9150292 -4.944269,-6.2785592 -8.915135,-8.6010692 -0.845344,-0.49398 -1.8624012,-0.68924 -2.9374032,-0.94456 l -1.731169,-0.10451 c -0.352425,-0.14685 -0.718343,-0.57785 -1.049073,-0.78767 -1.315243,-0.83158006 -4.689739,-2.63922 -5.66446403,-0.2622 -0.614892,1.49966 0.91995603,2.96307 1.46870203,3.72375 0.385498,0.53234 0.878417,1.13056 1.153319,1.73011 0.182033,0.39475 0.212989,0.78951 0.368035,1.20623 0.380471,1.02738 0.713052,2.14551 1.206235,3.0942992 0.248973,0.48049 0.523875,0.98611 0.839259,1.41605 0.192352,0.26353 0.523875,0.38047 0.576791,0.78661 -0.324643,0.45376 -0.343164,1.15755 -0.524933,1.73117 -0.819679,2.58498 -0.509587,5.79702 0.682096,7.70916 0.365919,0.58817 1.227931,1.8468 2.412206,1.3642 1.036638,-0.42281 0.805127,-1.73012 1.101725,-2.88449 0.0672,-0.26141 0.02593,-0.45376 0.157163,-0.62945 v 0.0526 l 0.9445612,1.88728 c 0.698764,1.12553 1.937808,2.30161 2.988998,3.09536 0.544777,0.41142 0.973666,1.12236 1.678516,1.36313 v -0.0527 h -0.05265 c -0.136525,-0.21299 -0.350308,-0.30083 -0.523875,-0.47122 -0.410368,-0.40296 -0.867039,-0.90329 -1.206235,-1.36419 -0.95594,-1.29699 -1.80049,-2.71727 -2.569369,-4.19497 -0.368035,-0.70591 -0.687387,-1.48405 -0.9974782,-2.20239 -0.119856,-0.27702 -0.117739,-0.69665 -0.366977,-0.83926 -0.338931,0.52599 -0.839258,0.95197 -1.101725,1.57295 -0.418571,0.99324 -0.473339,2.20556 -0.628385,3.46127 -0.09207,0.0331 -0.05159,0.0103 -0.105304,0.0527 -0.730781,-0.17674 -0.986898,-0.92815 -1.25889,-1.574 -0.686329,-1.63089 -0.814387,-4.25715 -0.209814,-6.13595 0.156104,-0.48578 0.86307,-2.01533 0.576791,-2.46486 -0.136525,-0.44741 -0.58711,-0.70697 -0.839258,-1.04907 -0.312208,-0.42281 -0.623094,-0.97976 -0.839258,-1.46871 -0.56224,-1.2713192 -0.823648,-2.6995392 -1.41605,-3.9851492 -0.283105,-0.61489 -0.760677,-1.23719 -1.153319,-1.78276 -0.43524,-0.60563 -0.921808,-1.05225 -1.258888,-1.78382 -0.119856,-0.26035 -0.28204503,-0.67707 -0.105304,-0.94351 0.05689,-0.18097 0.136525,-0.25638 0.315119,-0.31512 0.303742,-0.23468 1.151467,0.0786 1.467644,0.20982 0.841375,0.34925 1.54305,0.68209 2.256102,1.15438 0.341048,0.22621 0.687387,0.66463 1.100666,0.7866 h 0.472282 c 0.737923,0.1696 1.564746,0.0516 2.255043,0.26141 1.2194642,0.37095 2.3119282,0.94774 3.3041162,1.57401 3.022071,1.90897 5.494337,4.62491 7.185025,7.8671192 0.271727,0.52202 0.389731,1.01917 0.629443,1.57295 0.4826,1.11627 1.091407,2.26456 1.57189,3.35703 0.480483,1.08823 0.947738,2.1881 1.62666,3.0943 0.35666,0.47652 1.73328,0.73184 2.35955,0.99642 0.43921,0.18495 1.15861,0.37836 1.57401,0.62945 0.79375,0.47863 1.56263,1.04907 2.30796,1.57294 0.37095,0.26247 1.51606,0.8382 1.57295,1.31154 z M 7.6951368,5.6924218 c -0.384439,-0.007 -0.656166,0.0413 -0.943504,0.10451 v 0.0526 h 0.05159 c 0.183885,0.37624 0.507471,0.61912 0.734748,0.9435 l 0.523875,1.10173 0.05265,-0.0516 c 0.324644,-0.22939 0.47334,-0.59531 0.471223,-1.15437 -0.130175,-0.13759 -0.148696,-0.30798 -0.262467,-0.47228 -0.148696,-0.21802 -0.439208,-0.34105 -0.628385,-0.52388 z m 0,0"
     id="path1"
     style="stroke-width:0.264583" />
</svg>
