<?xml version="1.0" encoding="UTF-8" standalone="no"?>
<!-- Created with Inkscape (http://www.inkscape.org/) -->

<svg
   width="23.207796mm"
   height="15.255949mm"
   viewBox="0 0 23.207796 15.255949"
   version="1.1"
   id="svg1"
   xmlns="http://www.w3.org/2000/svg"
   xmlns:svg="http://www.w3.org/2000/svg">
  <defs
     id="defs1" />
  <path
     id="path1"
   
     d="m 17.739498,0.00228531 a 8.3767083,8.3767083 0 0 0 -0.83768,0.0615 c -1.80446,0.34131 -3.04014,1.49201999 -3.39204,3.14036999 a 6.6145833,6.6145833 0 0 0 0.0584,2.11667 4.3603333,4.3603333 0 0 0 0.90744,1.65365 c 0.67204,0.72496 1.40746,1.1801 3.11402,1.91564 1.47903,0.64558 2.00814,0.95515 2.27273,1.3229197 a 1.4366875,1.4366875 0 0 1 -0.18241,1.83089 c -0.71437,0.64294 -2.15905,0.71997 -3.21738,0.16434 a 4.4397083,4.4397083 0 0 1 -1.25419,-1.20148 l -0.19843,-0.29352 -0.94982,0.55035 -1.22524,0.67748 a 2.4712083,2.4712083 0 0 0 -0.30386,0.19275 c -0.037,0.0635 0.55562,0.93936 0.85989,1.27538 a 6.0854167,6.0854167 0 0 0 3.36517,1.75441 10.138833,10.138833 0 0 0 2.51923,0.0264 c 1.83356,-0.30957 3.12952,-1.24364 3.65869,-2.61948 0.47625,-1.26471 0.32035,-2.9739797 -0.38344,-4.0323197 -0.62971,-0.95514 -1.6431,-1.62719 -4.01112,-2.64583 -1.28588,-0.55563 -1.69605,-0.82798 -1.91565,-1.28571 a 1.2117917,1.2117917 0 0 1 -0.14263,-0.61908 c -0.005,-0.86519 0.64003,-1.39172 1.6428,-1.32292 a 1.8758958,1.8758958 0 0 1 1.55339,0.93379 c 0.14023,0.20902 0.26689,0.34677 0.29869,0.32557 0.87048,-0.53975 2.2996,-1.50541 2.2996,-1.54771 a 5.445125,5.445125 0 0 0 -0.79375,-1.05834 4.1169167,4.1169167 0 0 0 -2.06912,-1.19061999 v 0.005 a 8.3767083,8.3767083 0 0 0 -1.67328,-0.13023 z m -11.8814636,0.14883 c -3.175,0 -5.79966604,-4e-5 -5.82083304,0.0238 a 13.014854,13.014854 0 0 0 -0.03152,1.36787999 v 1.32291 H 4.3103284 V 15.100105 h 3.045292 V 2.8682953 h 4.2943176 v -1.35444 l -0.016,-1.36270999 z" />
</svg>
