<?xml version="1.0" encoding="UTF-8" standalone="no"?>
<!-- Created with Inkscape (http://www.inkscape.org/) -->

<svg
   width="33.866665mm"
   height="20.318949mm"
   viewBox="0 0 33.866665 20.318949"
   version="1.1"
   id="svg1"
   xmlns="http://www.w3.org/2000/svg"
   xmlns:svg="http://www.w3.org/2000/svg">
  <defs
     id="defs1" />
  <path
     d="m 16.93334,-6.0441151e-6 c -4.515644,0 -7.3368973,2.2568999441151 -8.4666673,6.7725399441151 1.6928043,-2.25716 3.6689773,-3.10356 5.9261373,-2.5392 1.288786,0.3212 2.2098,1.25571 3.229769,2.29129 1.659996,1.6846 3.5814,3.6348401 7.777422,3.6348401 4.51538,0 7.3369,-2.2571601 8.46667,-6.7738601 -1.69307,2.25848 -3.66898,3.10489 -5.9264,2.54053 -1.28852,-0.32147 -2.20848,-1.25571 -3.22977,-2.29129 C 23.051565,1.9502439 21.13069,-6.0441152e-6 16.93334,-6.0441151e-6 Z M 8.4666727,10.159464 c -4.51538,0 -7.336896,2.25716 -8.466666942603,6.77387 C 1.6928097,14.674844 3.6687177,13.828444 5.9261427,14.392804 c 1.288786,0.32146 2.2098,1.25571 3.229769,2.29129 1.6599963,1.6846 3.5814013,3.63484 7.7774283,3.63484 4.515379,0 7.336891,-2.25689 8.466661,-6.77254 -1.693063,2.25716 -3.668972,3.10357 -5.926397,2.53921 -1.288521,-0.3212 -2.208477,-1.25571 -3.229769,-2.29129 -1.658937,-1.6846 -3.579812,-3.63485 -7.7771623,-3.63485 z m 0,0"

     id="path1"
     style="stroke-width:0.264583" />
</svg>
