<?xml version="1.0" encoding="UTF-8" standalone="no"?>
<!-- Created with Inkscape (http://www.inkscape.org/) -->

<svg
   width="32.354443mm"
   height="32.263165mm"
   viewBox="0 0 32.354443 32.263165"
   version="1.1"
   id="svg1"
   xmlns="http://www.w3.org/2000/svg"
   xmlns:svg="http://www.w3.org/2000/svg">
  <defs
     id="defs1" />
  <path
     d="M 23.460796,0.00645302 12.214155,2.209903 a 0.27966458,0.27966458 0 0 0 -0.226483,0.25849 l -0.692414,11.68612 a 0.2778125,0.2778125 0 0 0 0.343693,0.29025 l 3.131609,-0.7239 c 0.382058,-0.0878 0.735541,0.25717 0.656695,0.64135 l -0.930539,4.55559 a 0.27701875,0.27701875 0 0 0 0.357187,0.32465 l 1.933575,-0.58817 c 0.390261,-0.11827 0.774965,0.2331 0.693209,0.63262 l -1.479021,7.15618 c -0.03387,0.16405 0.0508,0.26829 0.168804,0.31671 0.118004,0.0484 0.251354,0.0336 0.342106,-0.10689 l 0.161396,-0.25003 9.161464,-18.2843 c 0.10848,-0.21643 -0.0672,-0.44767 -0.30321,-0.40217 l -3.22422,0.62257 c -0.39423,0.0767 -0.73871,-0.30057 -0.62679,-0.68633 l 2.1037,-7.29244998 a 0.27675417,0.27675417 0 0 0 -0.32332,-0.35374 h -5.3e-4 z M 0.84659651,3.430153 a 0.82629375,0.82629375 0 0 0 -0.122502,0.005 c -0.557213,0.0672 -0.917311,0.6977 -0.613304,1.23057 L 15.610612,31.846373 c 0.318293,0.55827 1.124479,0.5551 1.438539,-0.006 L 32.247346,4.662913 c 0.34105,-0.60986 -0.18203,-1.34064 -0.86942,-1.21549 l -8.66352,1.5793 -0.77867,2.69875 v 7.9e-4 a 0.27596042,0.27596042 0 0 0 0.322,0.35295 h 5.3e-4 l 3.22342,-0.62283 v 5.3e-4 c 0.4355,-0.0844 0.79005,0.38259 0.59081,0.77973 l -9.168601,18.29726 -0.168804,0.26247 a 0.54371875,0.54371875 0 0 1 -0.664633,0.20822 0.54424792,0.54424792 0 0 1 -0.327555,-0.61489 l 1.479021,-7.15618 a 0.2778125,0.2778125 0 0 0 -0.357187,-0.32623 l -1.93384,0.58816 c -0.389467,0.11854 -0.774435,-0.23151 -0.693208,-0.6305 l 0.930539,-4.55559 a 0.27754792,0.27754792 0 0 0 -0.338137,-0.33073 l -3.131344,0.7239 c -0.351366,0.0804 -0.687916,-0.204 -0.667279,-0.56383 L 11.553491,5.334163 0.97359651,3.443183 a 0.86756875,0.86756875 0 0 0 -0.127,-0.0132 z"
     id="path1"
     style="stroke-width:0.264583" />
</svg>
