<?xml version="1.0" encoding="UTF-8" standalone="no"?>
<!-- Created with Inkscape (http://www.inkscape.org/) -->

<svg
   width="33.864639mm"
   height="30.895466mm"
   viewBox="0 0 33.864639 30.895466"
   version="1.1"
   id="svg1"
   xmlns="http://www.w3.org/2000/svg"
   xmlns:svg="http://www.w3.org/2000/svg">
  <defs
     id="defs1" />
  <path
     d="m 10.358945,20.369264 -7.5723706,-7.57211 a 1.6393583,1.6393583 0 0 0 -2.31828001,2.31828 l 15.30032061,15.2998 a 1.6340667,1.6340667 0 0 0 1.15888,0.48022 h 0.007 a 1.6338021,1.6338021 0 0 0 1.15887,-0.48022 l 15.30031,-15.2998 a 1.6417396,1.6417396 0 0 0 0.47096,-1.15623 1.6398875,1.6398875 0 0 0 -2.78924,-1.16205 l -7.57105,7.57158 a 1.5901458,1.5901458 0 0 0 -0.0852,0.0789 l -6.48785,6.48706 -6.48811,-6.48706 a 1.6499417,1.6499417 0 0 0 -0.0847,-0.0786 z M 25.413215,9.3678945 17.316965,21.074114 a 0.69717708,0.69717708 0 0 1 -1.14803,-0.002 0.68976875,0.68976875 0 0 1 -0.11933,-0.42359 l 0.32412,-6.46325 -5.23135,-1.10913 a 0.695325,0.695325 0 0 1 -0.50032,-0.42069 0.68871042,0.68871042 0 0 1 0.0735,-0.64849 l 8.09625,-11.70622945 a 0.69638333,0.69638333 0 0 1 0.79613,-0.26405 0.69347292,0.69347292 0 0 1 0.35189,0.26591 c 0.0852,0.12435 0.127,0.27305 0.11933,0.42359 l -0.32385,6.46324995 5.23081,1.10913 c 0.11192,0.0238 0.21617,0.0746 0.30348,0.14817 a 0.68923958,0.68923958 0 0 1 0.12356,0.92075 z"
     id="path1"
     style="stroke-width:0.264583" />
</svg>
