<?xml version="1.0" encoding="UTF-8" standalone="no"?>
<!-- Created with Inkscape (http://www.inkscape.org/) -->

<svg
   width="12.290004mm"
   height="12.725742mm"
   viewBox="0 0 12.290004 12.725742"
   version="1.1"
   id="svg1"
   sodipodi:docname="favicon.svg"
   inkscape:version="1.4.3 (fcd0343856, 2026-01-01)"
   xmlns:inkscape="http://www.inkscape.org/namespaces/inkscape"
   xmlns:sodipodi="http://sodipodi.sourceforge.net/DTD/sodipodi-0.dtd"
   xmlns="http://www.w3.org/2000/svg"
   xmlns:svg="http://www.w3.org/2000/svg">
  <sodipodi:namedview
     id="namedview1"
     pagecolor="#ffffff"
     bordercolor="#000000"
     borderopacity="0.25"
     inkscape:showpageshadow="2"
     inkscape:pageopacity="0.0"
     inkscape:pagecheckerboard="0"
     inkscape:deskcolor="#d1d1d1"
     inkscape:document-units="mm"
     inkscape:zoom="4"
     inkscape:cx="402.375"
     inkscape:cy="559.625"
     inkscape:window-width="1326"
     inkscape:window-height="834"
     inkscape:window-x="2139"
     inkscape:window-y="135"
     inkscape:window-maximized="0"
     inkscape:current-layer="layer1">
    <inkscape:page
       x="0"
       y="9.9525183e-38"
       width="12.290004"
       height="12.725742"
       id="page2"
       margin="0"
       bleed="0" />
  </sodipodi:namedview>
  <defs
     id="defs1" />
  <g
     inkscape:label="Layer 1"
     inkscape:groupmode="layer"
     id="layer1"
     transform="translate(-98.788849,-142.13714)">
    <path
       d="m 104.93385,142.15 0.79375,5.02708 5.02708,1.32292 -5.02708,1.32292 -0.79375,5.02708 -0.79375,-5.02708 -5.027078,-1.32292 5.027078,-1.32292 z"
       id="path1"
       style="fill:#f1f7fd;fill-opacity:1;stroke:#c4dcf6;stroke-width:0.165;stroke-dasharray:none;stroke-opacity:1" />
    <g
       id="g13"
       transform="matrix(1.4445944,0,0,1.4670094,-57.060426,-57.318301)">
      <path
         d="m 111.60042,138.66079 c -1.09361,0 -1.84036,0.12067 -2.24017,0.36173 l 0.0527,0.29973 c 0.67615,-0.1176 1.1496,-0.17622 1.42007,-0.17622 0.27634,0 0.45273,0.003 0.52916,0.009 -1.76388,1.2406 -2.64583,1.98445 -2.64583,2.23139 0,0.12936 0.0557,0.26164 0.16743,0.39688 0.1176,0.13522 0.23245,0.20257 0.34417,0.20257 0.0235,0 0.17905,-0.032 0.46715,-0.0966 0.22931,-0.0529 0.47937,-0.0883 0.74983,-0.10593 0.15875,-0.0117 0.28232,-0.0176 0.37052,-0.0176 0.0941,-0.006 0.25884,-0.0116 0.49402,-0.0176 0.23518,-0.006 0.42029,-0.0116 0.55553,-0.0176 l 0.009,-0.37052 v -5.2e-4 c -0.21167,-0.0235 -0.46172,-0.0351 -0.74982,-0.0351 -0.28222,0 -0.82882,0.0644 -1.64021,0.19379 0.25282,-0.3175 0.51741,-0.60824 0.79375,-0.87282 0.27634,-0.26458 0.50264,-0.46182 0.67902,-0.59118 0.18227,-0.13522 0.36156,-0.26461 0.53796,-0.38809 0.17639,-0.12349 0.29706,-0.20536 0.36173,-0.24649 0.0706,-0.0411 0.12046,-0.0736 0.14986,-0.0971 0.15288,-0.11172 0.22945,-0.2353 0.22945,-0.37052 0,-0.12349 -0.0504,-0.20297 -0.15038,-0.23823 -0.0941,-0.0353 -0.25542,-0.0527 -0.48473,-0.0527 z"
         style="font-size:8.81944px;font-family:'Marck Script';-inkscape-font-specification:'Marck Script';fill:#7a6b9a"
         id="path13" />
      <path
         d="m 114.42816,138.51971 c -0.2587,0 -0.4917,0.0404 -0.69867,0.12041 -0.20226,0.08 -0.37612,0.19721 -0.52193,0.35243 -0.14581,0.15052 -0.2565,0.33399 -0.33176,0.55035 -0.0753,0.21638 -0.11317,0.461 -0.11317,0.73381 0,0.35749 0.0662,0.67286 0.19792,0.94568 0.1364,0.2681 0.32896,0.47735 0.57826,0.62787 0.2493,0.15052 0.54598,0.22582 0.88935,0.22582 0.16917,-5e-5 0.34337,-0.0258 0.52193,-0.0775 0.17874,-0.0565 0.34351,-0.14591 0.49403,-0.2682 0.047,-0.0329 0.0773,-0.0708 0.0915,-0.11317 0.0141,-0.0471 0.0141,-0.0941 0,-0.14108 -0.009,-0.0471 -0.0306,-0.0845 -0.0636,-0.11266 -0.0329,-0.033 -0.0728,-0.0517 -0.11989,-0.0563 -0.047,-0.005 -0.0966,0.0115 -0.14831,0.0491 -0.127,0.094 -0.25385,0.15974 -0.38085,0.1974 -0.1223,0.0376 -0.24208,0.0568 -0.35967,0.0568 -0.35748,0 -0.63294,-0.11777 -0.82579,-0.35295 -0.19286,-0.2399 -0.28939,-0.56437 -0.28939,-0.97359 0,-0.21166 0.0237,-0.39766 0.0708,-0.55759 0.0517,-0.15992 0.12451,-0.29385 0.21859,-0.40204 0.0941,-0.10816 0.20931,-0.19054 0.34571,-0.24701 0.13641,-0.0611 0.29663,-0.0915 0.48008,-0.0915 0.11759,0 0.2399,0.0187 0.3669,0.0563 0.127,0.0376 0.25133,0.10332 0.37362,0.1974 0.0517,0.0376 0.10125,0.0543 0.14831,0.0496 0.0517,-0.005 0.0942,-0.0214 0.12713,-0.0496 0.0329,-0.0329 0.0561,-0.0703 0.0703,-0.11265 0.0141,-0.0471 0.0141,-0.0941 0,-0.14108 -0.0141,-0.047 -0.0444,-0.0875 -0.0915,-0.1204 -0.15051,-0.12701 -0.3173,-0.21595 -0.50075,-0.26769 -0.18344,-0.0517 -0.35983,-0.078 -0.52916,-0.078 z"
         style="font-size:7.05556px;font-family:Nunito;-inkscape-font-specification:Nunito;fill:#b1bef2"
         id="path12" />
    </g>
  </g>
</svg>
